<svg version="1.1" viewBox="0.0 0.0 128.0 128.0" fill="none" stroke="none" stroke-linecap="square" stroke-miterlimit="10" xmlns:xlink="http://www.w3.org/1999/xlink" xmlns="http://www.w3.org/2000/svg"><clipPath id="p.0"><path d="m0 0l128.0 0l0 128.0l-128.0 0l0 -128.0z" clip-rule="nonzero"/></clipPath><g clip-path="url(#p.0)"><path fill="#000000" fill-opacity="0.0" d="m0 0l128.0 0l0 128.0l-128.0 0z" fill-rule="evenodd"/><path fill="#000000" fill-opacity="0.0" d="m-4.3018374 8.963538l128.0 0l0 120.15748l-128.0 0z" fill-rule="evenodd"/><path fill="#000000" d="m20.213787 126.642265q-3.671875 0 -5.593749 -2.3125q-1.921875 -2.328125 -1.921875 -5.4375q0 -3.125 1.921875 -5.6875l40.3125 -53.765625l7.203125 -6.390625l36.79688 -48.96875q2.25 -2.390625 5.921875 -2.390625q3.359375 0 5.28125 2.078125q1.921875 2.078125 2.078125 5.1250005q0.171875 3.03125 -1.75 5.90625l-38.890625 51.84375l-6.875 6.078125l-38.718754 51.515625q-2.40625 2.40625 -5.765625 2.40625zm83.6875 0q-2.078125 0 -3.609375 -0.71875q-1.515625 -0.71875 -2.796875 -2.328125l-37.281254 -51.671875l-5.921875 -4.96875l-37.59375 -52.15625q-1.921874 -2.5625 -1.609374 -5.59375q0.328125 -3.0468755 2.328124 -5.2812505q2.0 -2.234375 5.359375 -2.234375q4.15625 0 5.921875 2.390625l35.51563 49.28125l6.078125 4.96875l39.53125 54.875q1.921875 2.5625 1.75 5.765625q-0.15625 3.1875 -2.15625 5.4375q-2.0 2.234375 -5.515625 2.234375z" fill-rule="nonzero"/></g></svg>